<svg xmlns="http://www.w3.org/2000/svg" xmlns:xlink="http://www.w3.org/1999/xlink" width="500" zoomAndPan="magnify" viewBox="0 0 375 374.999991" height="500" preserveAspectRatio="xMidYMid meet" version="1.0"><defs><g/><clipPath id="2a67545fc1"><path d="M 45.578125 45.578125 L 329.078125 45.578125 L 329.078125 329.078125 L 45.578125 329.078125 Z M 45.578125 45.578125 " clip-rule="nonzero"/></clipPath><clipPath id="198e283597"><path d="M 149 230 L 186 230 L 186 249.507812 L 149 249.507812 Z M 149 230 " clip-rule="nonzero"/></clipPath><clipPath id="46991f1bde"><path d="M 125 125.757812 L 250 125.757812 L 250 173 L 125 173 Z M 125 125.757812 " clip-rule="nonzero"/></clipPath><clipPath id="2e7407205c"><path d="M 136 148 L 239 148 L 239 249.507812 L 136 249.507812 Z M 136 148 " clip-rule="nonzero"/></clipPath><clipPath id="edb1a39000"><path d="M 64.277344 165.359375 L 108.527344 165.359375 L 108.527344 209.609375 L 64.277344 209.609375 Z M 64.277344 165.359375 " clip-rule="nonzero"/></clipPath><clipPath id="6557b9a779"><path d="M 266.441406 165.359375 L 310.691406 165.359375 L 310.691406 209.609375 L 266.441406 209.609375 Z M 266.441406 165.359375 " clip-rule="nonzero"/></clipPath></defs><g clip-path="url(#2a67545fc1)"><path fill="#00bf63" d="M 187.496094 329.417969 C 109.242188 329.417969 45.578125 265.753906 45.578125 187.5 C 45.578125 109.242188 109.242188 45.578125 187.496094 45.578125 C 265.753906 45.578125 329.417969 109.242188 329.417969 187.5 C 329.417969 265.753906 265.753906 329.417969 187.496094 329.417969 Z M 187.496094 55.5 C 114.714844 55.5 55.5 114.714844 55.5 187.5 C 55.5 260.285156 114.714844 319.496094 187.496094 319.496094 C 260.277344 319.496094 319.496094 260.285156 319.496094 187.5 C 319.496094 114.714844 260.277344 55.5 187.496094 55.5 Z M 187.496094 55.5 " fill-opacity="1" fill-rule="nonzero"/></g><g clip-path="url(#198e283597)"><path fill="#00bf63" d="M 152.546875 230.796875 L 149.707031 249.257812 L 158.5 249.257812 L 158.5 243.980469 C 158.5 242.523438 159.683594 241.34375 161.140625 241.34375 C 162.59375 241.34375 163.777344 242.527344 163.777344 243.980469 L 163.777344 249.257812 L 171.6875 249.257812 L 171.6875 243.980469 C 171.6875 242.523438 172.867188 241.34375 174.324219 241.34375 C 175.78125 241.34375 176.960938 242.527344 176.960938 243.980469 L 176.960938 249.257812 L 185.753906 249.257812 L 182.914062 230.796875 Z M 152.546875 230.796875 " fill-opacity="1" fill-rule="nonzero"/></g><path fill="#00bf63" d="M 195.050781 207.164062 L 197.757812 212.113281 L 200.464844 207.164062 C 200.707031 206.722656 201.070312 206.359375 201.511719 206.117188 L 206.460938 203.410156 L 201.511719 200.703125 C 201.070312 200.460938 200.707031 200.097656 200.464844 199.652344 L 197.757812 194.703125 L 195.050781 199.652344 C 194.808594 200.097656 194.445312 200.460938 194 200.703125 L 189.050781 203.410156 L 194 206.117188 C 194.441406 206.359375 194.808594 206.722656 195.050781 207.164062 Z M 195.050781 207.164062 " fill-opacity="1" fill-rule="nonzero"/><path fill="#00bf63" d="M 153.683594 223.417969 L 153.359375 225.523438 L 182.105469 225.523438 L 181.78125 223.417969 C 181.496094 221.582031 179.945312 220.246094 178.085938 220.246094 C 173.855469 220.246094 161.761719 220.246094 157.378906 220.246094 C 155.519531 220.246094 153.964844 221.582031 153.683594 223.417969 Z M 153.683594 223.417969 " fill-opacity="1" fill-rule="nonzero"/><path fill="#00bf63" d="M 220.164062 191.328125 L 221.492188 193.753906 L 222.816406 191.328125 C 223.058594 190.886719 223.421875 190.523438 223.863281 190.28125 L 226.289062 188.953125 L 223.863281 187.628906 C 223.421875 187.386719 223.058594 187.023438 222.816406 186.582031 L 221.492188 184.15625 L 220.164062 186.582031 C 219.921875 187.023438 219.558594 187.386719 219.117188 187.628906 L 216.691406 188.953125 L 219.117188 190.28125 C 219.558594 190.523438 219.921875 190.886719 220.164062 191.328125 Z M 220.164062 191.328125 " fill-opacity="1" fill-rule="nonzero"/><path fill="#00bf63" d="M 167.730469 180.691406 C 166.277344 180.691406 165.09375 181.875 165.09375 183.328125 L 165.09375 214.972656 L 170.371094 214.972656 L 170.371094 183.328125 C 170.371094 181.875 169.1875 180.691406 167.730469 180.691406 Z M 167.730469 180.691406 " fill-opacity="1" fill-rule="nonzero"/><g clip-path="url(#46991f1bde)"><path fill="#00bf63" d="M 246.828125 162.082031 L 187.511719 125.765625 L 128.191406 162.082031 C 124.65625 164.246094 124.628906 169.453125 128.265625 171.601562 C 129.976562 172.609375 132.035156 172.640625 133.773438 171.683594 L 186.238281 142.742188 C 187.03125 142.304688 187.992188 142.304688 188.785156 142.742188 L 241.25 171.683594 C 242.984375 172.640625 245.042969 172.609375 246.753906 171.601562 C 250.394531 169.453125 250.363281 164.246094 246.828125 162.082031 Z M 246.828125 162.082031 " fill-opacity="1" fill-rule="nonzero"/></g><path fill="#00bf63" d="M 151.910156 133.222656 L 141.359375 133.222656 L 141.359375 147.835938 L 151.910156 141.378906 Z M 151.910156 133.222656 " fill-opacity="1" fill-rule="nonzero"/><g clip-path="url(#2e7407205c)"><path fill="#00bf63" d="M 136.085938 176.417969 L 136.085938 249.257812 L 144.371094 249.257812 L 148.472656 222.617188 C 149.152344 218.1875 152.898438 214.972656 157.378906 214.972656 L 159.820312 214.972656 L 159.820312 183.328125 C 159.820312 178.964844 163.371094 175.417969 167.730469 175.417969 C 172.09375 175.417969 175.644531 178.964844 175.644531 183.328125 L 175.644531 214.972656 L 178.085938 214.972656 C 182.566406 214.972656 186.3125 218.1875 186.992188 222.617188 L 191.089844 249.257812 L 238.933594 249.257812 L 238.933594 176.417969 C 238.4375 176.160156 201.660156 155.867188 187.511719 148.0625 C 173.210938 155.949219 136.589844 176.15625 136.085938 176.417969 Z M 209.929688 186.640625 L 215.90625 183.371094 L 219.175781 177.394531 C 220.175781 175.566406 222.804688 175.566406 223.804688 177.394531 L 227.074219 183.371094 L 233.050781 186.640625 C 234.878906 187.640625 234.875 190.269531 233.050781 191.269531 L 227.074219 194.539062 L 223.804688 200.515625 C 222.804688 202.34375 220.175781 202.339844 219.175781 200.515625 L 215.90625 194.539062 L 209.929688 191.269531 C 208.101562 190.269531 208.105469 187.640625 209.929688 186.640625 Z M 195.441406 187.941406 C 196.441406 186.117188 199.070312 186.117188 200.070312 187.941406 L 204.71875 196.445312 L 213.222656 201.097656 C 215.050781 202.09375 215.050781 204.726562 213.222656 205.722656 L 204.71875 210.375 L 200.070312 218.875 C 199.070312 220.703125 196.441406 220.703125 195.441406 218.875 L 190.792969 210.375 L 182.289062 205.722656 C 180.460938 204.722656 180.464844 202.09375 182.289062 201.097656 L 190.792969 196.445312 Z M 195.441406 187.941406 " fill-opacity="1" fill-rule="nonzero"/></g><g clip-path="url(#edb1a39000)"><path fill="#00bf63" d="M 108.546875 187.492188 C 91.945312 190.550781 89.46875 193.027344 86.414062 209.628906 C 83.355469 193.027344 80.878906 190.550781 64.277344 187.492188 C 80.878906 184.4375 83.355469 181.960938 86.414062 165.359375 C 89.46875 181.960938 91.945312 184.4375 108.546875 187.492188 Z M 108.546875 187.492188 " fill-opacity="1" fill-rule="nonzero"/></g><g fill="#00bf63" fill-opacity="1"><g transform="translate(94.750646, 177.63834)"><g/></g></g><g fill="#00bf63" fill-opacity="1"><g transform="translate(97.641574, 160.573626)"><g><path d="M -13.03125 -22.84375 L -9.3125 -21.390625 L -11.296875 -16.34375 L 4.046875 -10.34375 L 2.234375 -5.703125 L -13.109375 -11.703125 L -15.09375 -6.65625 L -18.8125 -8.109375 Z M -13.03125 -22.84375 "/></g></g></g><g fill="#00bf63" fill-opacity="1"><g transform="translate(108.968062, 135.320643)"><g><path d="M -3.3125 -28.09375 L 12.453125 -15.046875 L 9.28125 -11.203125 L 2.796875 -16.578125 L -2.15625 -10.609375 L 4.328125 -5.234375 L 1.15625 -1.390625 L -14.609375 -14.4375 L -11.4375 -18.28125 L -5.265625 -13.171875 L -0.3125 -19.140625 L -6.484375 -24.25 Z M -3.3125 -28.09375 "/></g></g></g><g fill="#00bf63" fill-opacity="1"><g transform="translate(130.749023, 112.242767)"><g><path d="M -3.125 -17.53125 L -0.890625 -14.046875 L 4.734375 -17.640625 L 6.796875 -14.40625 L 1.171875 -10.8125 L 3.578125 -7.03125 L 9.9375 -11.09375 L 12.09375 -7.71875 L 1.53125 -0.96875 L -9.484375 -18.21875 L 1.078125 -24.96875 L 3.234375 -21.59375 Z M -3.125 -17.53125 "/></g></g></g><g fill="#00bf63" fill-opacity="1"><g transform="translate(154.35413, 99.419749)"><g/></g></g><g fill="#00bf63" fill-opacity="1"><g transform="translate(170.685468, 94.237945)"><g><path d="M 0.34375 -10.3125 C 0.21875 -12.320312 0.539062 -14.144531 1.3125 -15.78125 C 2.09375 -17.414062 3.234375 -18.71875 4.734375 -19.6875 C 6.242188 -20.664062 7.988281 -21.21875 9.96875 -21.34375 C 12.394531 -21.488281 14.507812 -20.976562 16.3125 -19.8125 C 18.125 -18.644531 19.382812 -16.96875 20.09375 -14.78125 L 14.625 -14.453125 C 14.164062 -15.273438 13.546875 -15.890625 12.765625 -16.296875 C 11.992188 -16.703125 11.140625 -16.875 10.203125 -16.8125 C 8.660156 -16.71875 7.441406 -16.109375 6.546875 -14.984375 C 5.660156 -13.859375 5.273438 -12.40625 5.390625 -10.625 C 5.492188 -8.832031 6.054688 -7.429688 7.078125 -6.421875 C 8.097656 -5.410156 9.378906 -4.953125 10.921875 -5.046875 C 11.859375 -5.109375 12.6875 -5.382812 13.40625 -5.875 C 14.132812 -6.363281 14.675781 -7.050781 15.03125 -7.9375 L 20.5 -8.265625 C 20.0625 -6.023438 19.015625 -4.210938 17.359375 -2.828125 C 15.710938 -1.453125 13.675781 -0.691406 11.25 -0.546875 C 9.269531 -0.421875 7.472656 -0.75 5.859375 -1.53125 C 4.242188 -2.320312 2.953125 -3.476562 1.984375 -5 C 1.015625 -6.519531 0.46875 -8.289062 0.34375 -10.3125 Z M 0.34375 -10.3125 "/></g></g></g><g fill="#00bf63" fill-opacity="1"><g transform="translate(203.343038, 94.479596)"><g><path d="M 7.53125 -2.078125 L 13.859375 -0.5 L 12.921875 3.234375 L 1.765625 0.4375 L 6.734375 -19.421875 L 11.5625 -18.203125 Z M 7.53125 -2.078125 "/></g></g></g><g fill="#00bf63" fill-opacity="1"><g transform="translate(226.942902, 101.791119)"><g><path d="M 14.078125 -10.90625 L 12.015625 -7.3125 L 17.8125 -3.984375 L 15.90625 -0.65625 L 10.109375 -3.984375 L 7.875 -0.09375 L 14.421875 3.671875 L 12.4375 7.140625 L 1.578125 0.90625 L 11.765625 -16.84375 L 22.625 -10.609375 L 20.625 -7.140625 Z M 14.078125 -10.90625 "/></g></g></g><g fill="#00bf63" fill-opacity="1"><g transform="translate(249.124813, 115.894486)"><g><path d="M 12.453125 8.34375 L 7.3125 2.6875 L 3.828125 4.203125 L 0.3125 0.34375 L 20.4375 -7.9375 L 24.3125 -3.671875 L 14.15625 15.5625 L 10.625 11.671875 Z M 14.453125 4.78125 L 18.28125 -2.125 L 11.0625 1.046875 Z M 14.453125 4.78125 "/></g></g></g><g fill="#00bf63" fill-opacity="1"><g transform="translate(269.152741, 140.464469)"><g><path d="M 7.765625 18.5625 L 5.828125 13.953125 L 14.28125 1.390625 L 2.625 6.265625 L 0.703125 1.671875 L 19.59375 -6.21875 L 21.515625 -1.625 L 13 10.953125 L 24.71875 6.0625 L 26.65625 10.671875 Z M 7.765625 18.5625 "/></g></g></g><g fill="#00bf63" fill-opacity="1"><g transform="translate(279.42023, 171.501687)"><g/></g></g><g fill="#00bf63" fill-opacity="1"><g transform="translate(80.803605, 232.307585)"><g><path d="M 25.34375 7.109375 L 21.65625 8.6875 L 19.515625 3.703125 L 4.390625 10.203125 L 2.421875 5.625 L 17.546875 -0.875 L 15.40625 -5.859375 L 19.09375 -7.4375 Z M 25.34375 7.109375 "/></g></g></g><g fill="#00bf63" fill-opacity="1"><g transform="translate(98.66219, 265.174653)"><g><path d="M 16.78125 -5.984375 L 13.703125 -3.203125 L 18.171875 1.75 L 15.3125 4.3125 L 10.84375 -0.640625 L 7.515625 2.375 L 12.578125 7.984375 L 9.609375 10.65625 L 1.21875 1.34375 L 16.421875 -12.359375 L 24.8125 -3.046875 L 21.84375 -0.375 Z M 16.78125 -5.984375 "/></g></g></g><g fill="#00bf63" fill-opacity="1"><g transform="translate(125.104593, 289.918915)"><g><path d="M 14.53125 3.640625 L 7.78125 0.046875 L 5.015625 2.671875 L 0.40625 0.21875 L 16.5625 -14.375 L 21.65625 -11.671875 L 18.578125 9.875 L 13.9375 7.40625 Z M 15.21875 -0.359375 L 16.5 -8.171875 L 10.75 -2.734375 Z M 15.21875 -0.359375 "/></g></g></g><g fill="#00bf63" fill-opacity="1"><g transform="translate(164.201232, 306.504046)"><g><path d="M 26.65625 -18.234375 L 24.890625 2.15625 L 19.921875 1.734375 L 20.984375 -10.5 L 15.359375 1.328125 L 11.359375 0.984375 L 7.828125 -11.65625 L 6.765625 0.59375 L 1.8125 0.15625 L 3.578125 -20.234375 L 9.4375 -19.71875 L 13.9375 -5.109375 L 20.8125 -18.734375 Z M 26.65625 -18.234375 "/></g></g></g><g fill="#00bf63" fill-opacity="1"><g transform="translate(210.978852, 305.577198)"><g/></g></g><g fill="#00bf63" fill-opacity="1"><g transform="translate(235.77491, 297.463059)"><g><path d="M 5.5 -22.859375 L -2.34375 -18.25 L -0.3125 -14.78125 C -0.195312 -15.351562 0.09375 -15.929688 0.5625 -16.515625 C 1.03125 -17.109375 1.613281 -17.613281 2.3125 -18.03125 C 3.570312 -18.769531 4.785156 -19.09375 5.953125 -19 C 7.117188 -18.914062 8.15625 -18.535156 9.0625 -17.859375 C 9.96875 -17.179688 10.734375 -16.3125 11.359375 -15.25 C 12.503906 -13.289062 12.863281 -11.410156 12.4375 -9.609375 C 12.007812 -7.816406 10.789062 -6.328125 8.78125 -5.140625 C 7.4375 -4.359375 6.132812 -3.910156 4.875 -3.796875 C 3.613281 -3.679688 2.472656 -3.875 1.453125 -4.375 C 0.441406 -4.875 -0.40625 -5.644531 -1.09375 -6.6875 L 3.109375 -9.15625 C 3.515625 -8.695312 4.007812 -8.410156 4.59375 -8.296875 C 5.175781 -8.179688 5.804688 -8.320312 6.484375 -8.71875 C 7.273438 -9.175781 7.710938 -9.769531 7.796875 -10.5 C 7.890625 -11.226562 7.691406 -12.015625 7.203125 -12.859375 C 6.722656 -13.671875 6.148438 -14.175781 5.484375 -14.375 C 4.828125 -14.570312 4.113281 -14.445312 3.34375 -14 C 2.78125 -13.664062 2.394531 -13.25 2.1875 -12.75 C 1.976562 -12.257812 1.953125 -11.753906 2.109375 -11.234375 L -2.046875 -8.796875 L -8.46875 -19.75 L 3.28125 -26.640625 Z M 5.5 -22.859375 "/></g></g></g><g fill="#00bf63" fill-opacity="1"><g transform="translate(267.307065, 274.618366)"><g><path d="M -11.90625 -11.640625 L -15.375 -14.734375 L -10 -20.765625 L 5.890625 -6.609375 L 2.4375 -2.75 L -9.984375 -13.8125 Z M -11.90625 -11.640625 "/></g></g></g><g fill="#00bf63" fill-opacity="1"><g transform="translate(286.01741, 249.811224)"><g><path d="M -9.484375 -5.609375 C -12.546875 -6.953125 -14.691406 -8.601562 -15.921875 -10.5625 C -17.160156 -12.519531 -17.203125 -14.816406 -16.046875 -17.453125 C -14.890625 -20.078125 -13.171875 -21.59375 -10.890625 -22 C -8.617188 -22.414062 -5.953125 -21.953125 -2.890625 -20.609375 C 0.210938 -19.242188 2.382812 -17.578125 3.625 -15.609375 C 4.863281 -13.648438 4.90625 -11.359375 3.75 -8.734375 C 2.59375 -6.097656 0.875 -4.578125 -1.40625 -4.171875 C -3.6875 -3.765625 -6.378906 -4.242188 -9.484375 -5.609375 Z M -4.859375 -16.125 C -6.648438 -16.914062 -8.117188 -17.328125 -9.265625 -17.359375 C -10.410156 -17.398438 -11.253906 -16.804688 -11.796875 -15.578125 C -12.335938 -14.347656 -12.207031 -13.320312 -11.40625 -12.5 C -10.601562 -11.675781 -9.304688 -10.867188 -7.515625 -10.078125 C -6.296875 -9.546875 -5.257812 -9.175781 -4.40625 -8.96875 C -3.5625 -8.769531 -2.796875 -8.78125 -2.109375 -9 C -1.421875 -9.21875 -0.890625 -9.753906 -0.515625 -10.609375 C -0.140625 -11.460938 -0.101562 -12.210938 -0.40625 -12.859375 C -0.707031 -13.515625 -1.21875 -14.085938 -1.9375 -14.578125 C -2.664062 -15.078125 -3.640625 -15.59375 -4.859375 -16.125 Z M -4.859375 -16.125 "/></g></g></g><g clip-path="url(#6557b9a779)"><path fill="#00bf63" d="M 310.710938 187.492188 C 294.109375 190.550781 291.632812 193.027344 288.574219 209.628906 C 285.519531 193.027344 283.042969 190.550781 266.441406 187.492188 C 283.042969 184.4375 285.519531 181.960938 288.574219 165.359375 C 291.632812 181.960938 294.109375 184.4375 310.710938 187.492188 Z M 310.710938 187.492188 " fill-opacity="1" fill-rule="nonzero"/></g></svg>